<mxfile host="app.diagrams.net" modified="2023-05-16T03:48:12.899Z" agent="Mozilla/5.0 (Macintosh; Intel Mac OS X 10_15_7) AppleWebKit/537.36 (KHTML, like Gecko) Chrome/113.0.0.0 Safari/537.36 Edg/113.0.1774.42" etag="1WXwY1ilzBfCl_s5Eqhh" version="21.3.2" type="github">
  <diagram name="Page-1" id="uRonXGFKkM05VsuhB5dR">
    <mxGraphModel dx="1194" dy="720" grid="1" gridSize="10" guides="1" tooltips="1" connect="1" arrows="1" fold="1" page="1" pageScale="1" pageWidth="827" pageHeight="1169" math="0" shadow="0">
      <root>
        <mxCell id="0" />
        <mxCell id="1" parent="0" />
      </root>
    </mxGraphModel>
  </diagram>
</mxfile>
